<svg width="76" height="69" viewBox="0 0 76 69" fill="none" xmlns="http://www.w3.org/2000/svg">
<g clip-path="url(#clip0_1_20)">
<path d="M75.4725 27.9335L41.5011 1.23109C39.4454 -0.407638 36.5101 -0.407638 34.4509 1.23109L0.583107 27.9335C-0.103287 28.4163 -0.199865 29.3785 0.386502 29.9564L5.57412 36.3176C5.8673 36.6066 6.16049 36.8003 6.5537 36.8955C6.94691 36.8955 7.33667 36.8004 7.62985 36.6066L10.7617 34.1961V67.552C10.7617 68.3238 11.4481 68.9969 12.2311 68.9969H31.3191C32.102 68.9969 32.7884 68.3204 32.7884 67.552C32.7884 66.7836 32.102 66.1071 31.3191 66.1071H13.7005V31.789L38.0761 12.6036L62.3551 31.789V66.0119H44.7331C43.9501 66.0119 43.2637 66.6851 43.2637 67.4568C43.2637 68.2286 43.9501 68.9018 44.7331 68.9018H63.921C64.704 68.9018 65.3904 68.2252 65.3904 67.4568V34.1995L68.5223 36.61C68.8155 36.8037 69.1087 36.8989 69.4018 36.8989H69.5984C69.9917 36.8989 70.3814 36.7052 70.578 36.321L75.7656 29.9598C76.1589 29.3819 76.0588 28.4163 75.4725 27.9369V27.9335ZM69.1087 33.4277L38.9556 9.61513C38.6624 9.42134 38.3693 9.32614 38.0761 9.32614C37.7829 9.32614 37.3897 9.42134 37.1965 9.61513L6.94346 33.4277L3.61497 29.2833L36.3135 3.4478C37.2931 2.67603 38.6624 2.67603 39.642 3.4478L72.4371 29.2833L69.1087 33.4277Z" fill="white"/>
<path d="M50.7035 33.526C47.1784 30.0547 41.501 30.0547 38.0759 33.526C34.5508 30.0547 28.8734 30.0547 25.4483 33.526C21.9232 36.9972 21.9232 42.5866 25.4483 45.9626L36.2168 56.5668C36.7065 57.0495 37.4895 57.3385 38.1759 57.3385C38.8623 57.3385 39.5453 57.0495 40.1351 56.5668L50.9035 45.9626C54.232 42.59 54.232 36.9972 50.7069 33.526H50.7035ZM48.6477 43.9363L37.9759 54.4452L27.404 43.9363C25.0551 41.621 25.0551 37.8642 27.404 35.5489C28.5802 34.3929 30.1461 33.8149 31.6121 33.8149C33.178 33.8149 34.6474 34.3929 35.8201 35.5489L36.8963 36.6096C37.1894 36.8986 37.5826 36.9938 37.9724 36.9938C38.3622 36.9938 38.7554 36.8 39.0486 36.6096L40.1247 35.6441C42.4736 33.3288 46.2919 33.3288 48.6408 35.6441C50.9897 37.9594 50.9897 41.7162 48.6408 43.9363H48.6477Z" fill="white"/>
</g>
<defs>
<clipPath id="clip0_1_20">
<rect width="76" height="69" fill="white"/>
</clipPath>
</defs>
</svg>
